<?xml version="1.0" encoding="utf-8"?>
<!-- Generator: Adobe Illustrator 23.0.1, SVG Export Plug-In . SVG Version: 6.00 Build 0)  -->
<svg version="1.1" id="Layer_1" xmlns="http://www.w3.org/2000/svg" xmlns:xlink="http://www.w3.org/1999/xlink" x="0px" y="0px"
	 viewBox="0 0 128 128" style="enable-background:new 0 0 128 128;" xml:space="preserve">
<style type="text/css">
	.st0{fill:none;}
	.st1{fill:#FFDA8E;}
	.st2{fill:#6B361C;}
	.st3{fill:#47D5E5;}
	.st4{fill:#28B8CE;}
	.st5{fill:#EABA65;}
	.st6{fill:#FFFFFF;}
	.st7{font-family:'BerlinSansFBDemi-Bold';}
	.st8{font-size:14px;}
</style>
<g>
	<title>background</title>
	<rect id="canvas_background" x="-1" y="-1" class="st0" width="582" height="402"/>
</g>
<g>
	<title>Layer 1</title>
	<rect id="svg_6" x="59.6" y="20.6" class="st1" width="8.9" height="91.6"/>
	<path id="svg_10" class="st2" d="M68.5,114.1h-8.9c-1,0-1.9-0.8-1.9-1.9V20.6c0-1,0.8-1.9,1.9-1.9h8.9c1,0,1.9,0.8,1.9,1.9v91.6
		C70.3,113.3,69.5,114.1,68.5,114.1z M61.4,110.4h5.1V22.5h-5.1V110.4z"/>
	<path id="svg_15" class="st3" d="M102.4,49.8v3.1c0,2.1-1.7,3.7-3.7,3.7H29.4c-2.1,0-3.7-1.7-3.7-3.7V31.3c0-1.1,0.5-2.2,1.3-2.9
		v18.5c0,2.1,1.7,3.7,3.7,3.7H100C100.9,50.7,101.8,50.4,102.4,49.8z"/>
	<path id="svg_24" class="st4" d="M102.4,31.3v18.5c-0.7,0.6-1.5,0.9-2.4,0.9H30.7C28.6,50.7,27,49,27,47V28.4
		c0.7-0.6,1.5-0.9,2.4-0.9h69.3C100.7,27.5,102.4,29.2,102.4,31.3z"/>
	<path id="svg_28" class="st2" d="M98.7,58.6H29.3c-3.1,0-5.6-2.5-5.6-5.6V31.3c0-3.1,2.5-5.6,5.6-5.6h69.3c3.1,0,5.6,2.5,5.6,5.6
		V53C104.3,56,101.8,58.6,98.7,58.6z M29.3,29.4c-1,0-1.9,0.8-1.9,1.9V53c0,1,0.8,1.9,1.9,1.9h69.3c1,0,1.9-0.8,1.9-1.9V31.3
		c0-1-0.8-1.9-1.9-1.9C98.6,29.4,29.3,29.4,29.3,29.4z"/>
	<path id="svg_49" class="st2" d="M101.3,114.3H26.6c-1,0-1.9-0.8-1.9-1.9s0.8-1.9,1.9-1.9h74.7c1,0,1.9,0.8,1.9,1.9
		S102.3,114.3,101.3,114.3z"/>
	<path id="svg_53" class="st5" d="M94,112.2c-1.7-3.9-5.6-6.7-10.2-6.7c-1.6,0-3,0.3-4.4,0.9c-1.4-4.5-5.6-7.8-10.6-7.8
		c-3.9,0-7.3,2-9.3,5.1c-2-2.6-5.2-4.3-8.7-4.3c-6.1,0-11.1,5-11.1,11.1c0,0.6,0.1,1.1,0.1,1.7C39.8,112.2,94,112.2,94,112.2z"/>
	<path id="svg_56" class="st2" d="M94,114.1H39.8c-0.9,0-1.7-0.7-1.9-1.6c-0.1-0.7-0.2-1.3-0.2-1.9c0-7.2,5.8-13,13-13
		c3.2,0,6.3,1.2,8.6,3.3c2.4-2.6,5.8-4.1,9.5-4.1c5.1,0,9.6,2.9,11.7,7.3c1.1-0.3,2.2-0.4,3.3-0.4c5.2,0,9.8,3.1,11.9,7.8
		c0.3,0.6,0.2,1.2-0.2,1.8C95.2,113.8,94.6,114.1,94,114.1L94,114.1z M41.5,110.4h49c-1.7-1.8-4.1-2.9-6.7-2.9
		c-1.3,0-2.5,0.3-3.6,0.7c-0.5,0.2-1,0.2-1.5,0s-0.8-0.6-1-1.1c-1.2-3.9-4.8-6.5-8.8-6.5c-3.1,0-6,1.6-7.8,4.2
		c-0.3,0.5-0.9,0.8-1.5,0.9c-0.6,0-1.2-0.2-1.6-0.7c-1.8-2.3-4.4-3.5-7.3-3.5C45.8,101.3,41.7,105.4,41.5,110.4z"/>
	<text id="svg_57" transform="matrix(1 0 0 1 30.567 46.2971)" class="st6 st7 st8">MOBILITY</text>
</g>
</svg>
