<?xml version="1.0" encoding="utf-8"?>
<!-- Generator: Adobe Illustrator 23.0.1, SVG Export Plug-In . SVG Version: 6.00 Build 0)  -->
<svg version="1.1" id="Layer_1" xmlns="http://www.w3.org/2000/svg" xmlns:xlink="http://www.w3.org/1999/xlink" x="0px" y="0px"
	 viewBox="0 0 182 180" style="enable-background:new 0 0 182 180;" xml:space="preserve">
<style type="text/css">
	.st0{fill:none;}
	.st1{fill:#FFFFFF;}
	.st2{fill:none;stroke:#3D3D3D;stroke-width:2;stroke-miterlimit:10;}
	.st3{fill:#53AF80;}
	.st4{fill:#C1C1C0;}
	.st5{fill:#23A2AF;}
	.st6{fill:none;stroke:#3D3D3D;stroke-width:2;stroke-linecap:round;stroke-linejoin:round;stroke-miterlimit:10;}
	.st7{fill:#28B8CE;}
	.st8{fill:#2599A5;}
	.st9{fill:#209AA0;}
	
		.st10{fill:#24A8B5;fill-opacity:0;stroke:#3D3D3D;stroke-width:2;stroke-linecap:round;stroke-linejoin:round;stroke-miterlimit:10;}
	.st11{fill:#E2E2E2;}
	.st12{fill:#3D3D3D;}
	.st13{fill:none;stroke:#3D3D3D;stroke-width:2;stroke-linejoin:round;stroke-miterlimit:10;}
	.st14{fill:#28C1D1;}
</style>
<g>
	<title>background</title>
	<rect id="canvas_background" x="27" y="23" class="st0" width="582" height="402"/>
</g>
<g>
	<title>Layer 1</title>
	<path id="svg_1" class="st1" d="M149,136c0,1.1-0.9,2-2,2H46c-1.1,0-2-0.9-2-2V57c0-1.1,0.9-2,2-2h101c1.1,0,2,0.9,2,2V136z"/>
	<path id="svg_2" class="st2" d="M149,136c0,1.1-0.9,2-2,2H46c-1.1,0-2-0.9-2-2V57c0-1.1,0.9-2,2-2h101c1.1,0,2,0.9,2,2V136z"/>
	<path id="svg_3" class="st3" d="M84,138h10v2h-9.4c-0.3,0-0.6-0.4-0.6-0.6V138z"/>
	<path id="svg_4" class="st2" d="M84,138h10v2h-9.4c-0.3,0-0.6-0.4-0.6-0.6V138z"/>
	<path id="svg_5" class="st3" d="M84,55h10v-2h-9.4c-0.3,0-0.6,0.3-0.6,0.6V55z"/>
	<path id="svg_6" class="st2" d="M84,55h10v-2h-9.4c-0.3,0-0.6,0.3-0.6,0.6V55z"/>
	<rect id="svg_7" x="34" y="54" class="st4" width="10" height="83"/>
	<rect id="svg_8" x="34" y="54" class="st2" width="10" height="83"/>
	<path id="svg_9" class="st5" d="M43.9,73.8c0,0,5.9-19.8,5.2-19.8h-8.8c-0.3,0-0.5,0.1-0.5,0.4l3.8,19.8
		C43.7,74.5,43.9,74.2,43.9,73.8z"/>
	<path id="svg_10" class="st6" d="M49,54h-8.7c-0.3,0-0.5,0.1-0.5,0.4l3.8,19.7c0.1,0.3,0.2,0.2,0.2-0.2"/>
	<path id="svg_11" class="st5" d="M33,73.6c0,0.4,0.3,0.7,0.4,0.4l3.9-19.6c0-0.3-0.2-0.4-0.5-0.4H33V73.6z"/>
	<path id="svg_12" class="st6" d="M33,73.6c0,0.4,0.3,0.7,0.4,0.4l3.9-19.6c0-0.3-0.2-0.4-0.5-0.4H33V73.6z"/>
	<path id="svg_13" class="st7" d="M44,73.6V57.5c0-2.2,1.4-3.5,3.6-3.5h16.1c0.4,0,0.7,0.3,0.3,0.6L44.7,74.1
		C44.4,74.4,44,74,44,73.6z"/>
	<path id="svg_14" class="st7" d="M151,73.6V57.5c0-2.2-2.2-3.5-4.4-3.5h-16.3c-0.4,0-0.7,0.3-0.3,0.6L149.8,74
		C150.2,74.4,151,74,151,73.6z"/>
	<path id="svg_15" class="st7" d="M151,118.5v15.9c0,2.2-2.2,3.6-4.4,3.6h-16.3c-0.4,0-0.7-0.3-0.3-0.6l19.9-19.4
		C150.2,117.7,151,118.1,151,118.5z"/>
	<path id="svg_16" class="st2" d="M44,73.6V57.5c0-2.2,1.4-3.5,3.6-3.5h16.1c0.4,0,0.7,0.3,0.3,0.6L44.7,74.1
		C44.4,74.4,44,74,44,73.6z"/>
	<path id="svg_17" class="st8" d="M43.9,118.1c0,0,5.9,19.9,5.2,19.9h-8.8c-0.3,0-0.5-0.2-0.5-0.5l3.8-19.8
		C43.7,117.4,43.9,117.6,43.9,118.1z"/>
	<path id="svg_18" class="st6" d="M49,138h-8.7c-0.3,0-0.5-0.2-0.5-0.5l3.8-19.7c0.1-0.3,0.2-0.1,0.2,0.3"/>
	<path id="svg_19" class="st9" d="M33,118.2c0-0.4,0.3-0.7,0.4-0.3l3.9,19.7c0.1,0.3-0.1,0.5-0.4,0.5H33C33,138.1,33,118.2,33,118.2
		z"/>
	<path id="svg_20" class="st10" d="M33,118.1c0-0.4,0.3-0.7,0.4-0.3l3.9,19.7c0.1,0.3-0.1,0.5-0.4,0.5H33V118.1z"/>
	<path id="svg_21" class="st7" d="M44,118.2v16.1c0,2.2,1.4,3.8,3.6,3.8h16.1c0.4,0,0.7-0.5,0.3-0.8l-19.3-19.5
		C44.4,117.5,44,117.7,44,118.2z"/>
	<path id="svg_22" class="st2" d="M44,118.2v16.1c0,2.2,1.4,3.8,3.6,3.8h16.1c0.4,0,0.7-0.5,0.3-0.8l-19.3-19.5
		C44.4,117.5,44,117.7,44,118.2z"/>
	<path id="svg_23" class="st2" d="M151,73.6V57.5c0-2.2-2.2-3.5-4.4-3.5h-16.3c-0.4,0-0.7,0.3-0.3,0.6L149.8,74
		C150.2,74.4,151,74,151,73.6z"/>
	<path id="svg_24" class="st2" d="M151,118.5v15.9c0,2.2-2.2,3.6-4.4,3.6h-16.3c-0.4,0-0.7-0.3-0.3-0.6l19.9-19.4
		C150.2,117.7,151,118.1,151,118.5z"/>
	<path id="svg_25" class="st7" d="M103,53.5c0-0.3-0.2-0.5-0.5-0.5h-10c-0.3,0-0.5,0.2-0.5,0.5v86c0,0.3,0.2,0.5,0.5,0.5h10
		c0.3,0,0.5-0.2,0.5-0.5V53.5z"/>
	<path id="svg_26" class="st2" d="M103,53.5c0-0.3-0.2-0.5-0.5-0.5h-10c-0.3,0-0.5,0.2-0.5,0.5v86c0,0.3,0.2,0.5,0.5,0.5h10
		c0.3,0,0.5-0.2,0.5-0.5V53.5z"/>
	<polyline id="svg_27" class="st2" points="92.4,113.5 97.9,117.7 102.6,113.9 	"/>
	<path id="svg_28" class="st11" d="M105,109.5c0,0.3-0.2,0.5-0.5,0.5h-13c-0.3,0-0.5-0.2-0.5-0.5v-1c0-0.3,0.2-0.5,0.5-0.5h13
		c0.3,0,0.5,0.2,0.5,0.5V109.5z"/>
	<path id="svg_29" class="st2" d="M105,109.5c0,0.3-0.2,0.5-0.5,0.5h-13c-0.3,0-0.5-0.2-0.5-0.5v-1c0-0.3,0.2-0.5,0.5-0.5h13
		c0.3,0,0.5,0.2,0.5,0.5V109.5z"/>
	<circle id="svg_30" class="st12" cx="97.5" cy="65.7" r="1.7"/>
	<circle id="svg_31" class="st12" cx="97.5" cy="71.7" r="1.7"/>
	<circle id="svg_32" class="st12" cx="97.5" cy="77.7" r="1.7"/>
	<circle id="svg_33" class="st12" cx="97.9" cy="83.7" r="1.7"/>
	<ellipse id="svg_34" class="st12" cx="97.5" cy="89.9" rx="1.7" ry="1.9"/>
	<circle id="svg_35" class="st12" cx="97.5" cy="100" r="1.7"/>
	<path id="svg_36" class="st11" d="M107,85c0-1.1-0.9-2-2-2H90c-1.1,0-2,0.9-2,2v9c0,1.1,0.9,2,2,2h15c1.1,0,2-0.9,2-2V85z M105,94
		H91v-9h14V94z"/>
	<path id="svg_37" class="st2" d="M107,94c0,1.1-0.9,2-2,2H90c-1.1,0-2-0.9-2-2v-9c0-1.1,0.9-2,2-2h15c1.1,0,2,0.9,2,2V94z"/>
	<rect id="svg_38" x="91" y="86" class="st13" width="13" height="7"/>
	<rect id="svg_39" x="97" y="90" class="st1" width="1" height="7"/>
	
		<rect id="svg_40" x="130.1" y="77.4" transform="matrix(0.2479 -0.9688 0.9688 0.2479 17.4736 191.1468)" class="st14" width="3.4" height="13.8"/>
	<rect id="svg_41" x="97" y="90" class="st13" width="1" height="7"/>
	<path id="svg_42" class="st2" d="M136.8,91l-12.4-3.2c-0.3-0.1-0.4-0.3-0.4-0.6l2.3-9.1c0.1-0.3,0.3-0.4,0.6-0.4l12.4,3.2
		c0.3,0.1,0.4,0.3,0.4,0.6l-2.3,9.1C137.3,90.9,137.1,91.1,136.8,91z"/>
	<polygon id="svg_43" class="st13" points="64.7,80.4 70.5,79.4 68.9,78.4 72.3,73.1 70.5,73.4 70.4,70.7 68.2,72.1 67.4,69.9 
		65.4,74.1 64.4,67.7 62.6,69.6 59.8,66.8 59.4,70.7 56.8,70.4 60.1,76 55.9,74 56.6,76.2 54.1,76.5 55.8,78.6 54.1,79.6 60.2,81.5 
		59.5,83.3 	"/>
	<line id="svg_44" class="st6" x1="62.5" y1="74.2" x2="66.1" y2="84.4"/>
	<line id="svg_45" class="st2" x1="125.6" y1="81" x2="139" y2="84.4"/>
	<line id="svg_46" class="st2" x1="124.8" y1="84.4" x2="138.1" y2="87.8"/>
	<path id="svg_47" class="st2" d="M117.5,130.2c0,0,3.4-7.5,0.1-18.5"/>
	<path id="svg_48" class="st2" d="M130.3,126.3c0,0-7.5-4.2-10.8-15.2"/>
	<line id="svg_49" class="st2" x1="115.6" y1="130.8" x2="121.8" y2="128.8"/>
	<line id="svg_50" class="st2" x1="125.7" y1="127.7" x2="131.9" y2="125.8"/>
	<path id="svg_51" class="st2" d="M120.5,129.3c-0.6-1.8,0.4-3.8,2.2-4.3c1.8-0.5,3.7,0.5,4.3,2.3"/>
	<polygon id="svg_52" class="st2" points="117.4,111.7 116,109.8 117.4,107.9 119.7,108.7 119.6,111 	"/>
	<line id="svg_53" class="st2" x1="117.5" y1="108" x2="116.9" y2="106.1"/>
	<line id="svg_54" class="st2" x1="117.5" y1="119.1" x2="123.6" y2="117.3"/>
	<line id="svg_55" class="st2" x1="116.9" y1="124.4" x2="127" y2="121.4"/>
	<path id="svg_56" class="st13" d="M139.1,107.8c-1.9-1.3-3.6-2.7-5.2-4.3c-0.8-0.8-1.7-1.7-2-2.8c-0.3-1.1,0.1-2.6,1.2-3
		c0.5-0.2,1.1-0.2,1.6,0c1.3,0.4,2.3,1.4,2.7,2.7c0-0.5,0.4-0.9,0.8-1.2c1.2-0.8,2.6-1.1,4-0.9c1.1,0.2,2.2,0.9,2.3,1.9
		c0.1,0.7-0.4,1.4-0.8,2c-0.8,0.9-1.8,1.7-2.7,2.5C140,105.5,139.3,106.6,139.1,107.8z"/>
	<path id="svg_57" class="st4" d="M107,52v-2.4c0-4.2-1.6-8.5-13.5-8.5S80,45.4,80,49.6V52h-3v-2.4c0-12,12.3-12,17-12s17,0,17,12
		V52H107z"/>
	<path id="svg_58" class="st1" d="M78.6,52H66.8c-0.3,0-0.8,0.3-0.8,0.6V55h13v-2.4C79,52.3,78.9,52,78.6,52z"/>
	<path id="svg_59" class="st2" d="M107,52v-2.4c0-4.2-1.6-8.5-13.5-8.5S80,45.4,80,49.6V52h-3v-2.4c0-12,12.3-12,17-12s17,0,17,12
		V52H107z"/>
	<path id="svg_60" class="st1" d="M118.8,52H107c-0.3,0,0,0.3,0,0.6V55h12v-2.4C119,52.3,119.1,52,118.8,52z"/>
	<path id="svg_61" class="st2" d="M118.8,52H107c-0.3,0,0,0.3,0,0.6V55h12v-2.4C119,52.3,119.1,52,118.8,52z"/>
	<path id="svg_62" class="st1" d="M121.8,52H110c-0.3,0-1,0.3-1,0.6V55h13v-2.4C122,52.3,122.1,52,121.8,52z"/>
	<path id="svg_63" class="st2" d="M121.8,52H110c-0.3,0-1,0.3-1,0.6V55h13v-2.4C122,52.3,122.1,52,121.8,52z"/>
	<path id="svg_64" class="st2" d="M78.6,52H66.8c-0.3,0-0.8,0.3-0.8,0.6V55h13v-2.4C79,52.3,78.9,52,78.6,52z"/>
	<polygon id="svg_65" class="st1" points="54.9,109 49.7,102.9 53.8,96.1 61.6,97.9 62.3,105.8 	"/>
	<path id="svg_66" class="st1" d="M81.6,52H69.8c-0.3,0-0.8,0.3-0.8,0.6V55h13v-2.4C82,52.3,81.9,52,81.6,52z"/>
	<polygon id="svg_67" class="st13" points="54.9,109 49.7,102.9 53.8,96.1 61.6,97.9 62.3,105.8 	"/>
	<path id="svg_68" class="st2" d="M81.6,52H69.8c-0.3,0-0.8,0.3-0.8,0.6V55h13v-2.4C82,52.3,81.9,52,81.6,52z"/>
	<polygon id="svg_69" class="st11" points="58.6,105.1 66,96.7 69.6,107.4 	"/>
	<polygon id="svg_70" class="st13" points="58.6,105.1 66,96.7 69.6,107.4 	"/>
	<line id="svg_71" class="st2" x1="34" y1="85" x2="44" y2="85"/>
	<line id="svg_72" class="st2" x1="34" y1="90" x2="44" y2="90"/>
	<line id="svg_73" class="st2" x1="34" y1="95" x2="44" y2="95"/>
	<line id="svg_74" class="st2" x1="34" y1="100" x2="44" y2="100"/>
	<line id="svg_75" class="st2" x1="34" y1="105" x2="44" y2="105"/>
</g>
</svg>
