<svg width="512" height="512" xmlns="http://www.w3.org/2000/svg" xmlns:xlink="http://www.w3.org/1999/xlink">
 <g>
  <title>background</title>
  <rect fill="none" id="canvas_background" height="402" width="582" y="-1" x="-1"/>
 </g>
 <g>
  <title>Layer 1</title>
  <circle id="svg_1" fill="#28b8ce" r="243" cy="258.835" cx="258.884"/>
  <defs>
   <circle r="243" id="SVGID_1_" cy="258.835" cx="258.884"/>
  </defs>
  <clipPath id="SVGID_2_">
   <use id="svg_5" xlink:href="#SVGID_1_"/>
  </clipPath>
  <path id="svg_7" fill="#9be6ff" d="m108.976,92.735c5.133,1.606 10.137,3.738 14.516,6.918c8.524,6.19 14.021,15.485 16.989,25.573c0.828,2.814 3.891,0.49 5.728,-0.05c3.389,-0.997 6.932,-1.434 10.457,-1.218c5.433,0.334 10.828,1.664 15.676,4.213c9.128,4.798 15.25,13.599 17.714,23.635c0.503,2.05 0.302,4.648 2.927,4.709c2.725,0.063 5.434,0.651 7.894,1.861c4.659,2.292 10.832,8.675 10.642,14.34c-0.324,9.652 -2.957,19.124 -13.127,22.412c-5.581,1.804 -12.637,0.638 -18.378,0.639c-28.799,0.01 -57.599,0.02 -86.398,0.01c-12.852,-0.004 -25.705,-0.01 -38.557,-0.038c-7.199,-0.016 -13.866,0.778 -20.562,-2.302c-21.942,-10.095 -25.299,-43.116 -5.693,-57.46c5.295,-3.874 11.708,-5.774 18.183,-6.072c4.03,-0.185 5.168,0.026 6.241,-4.139c0.98,-3.805 2.335,-7.518 4.137,-11.002c2.988,-5.774 7.222,-10.801 12.409,-14.647c2.669,-1.979 5.558,-3.642 8.571,-5.015c1.59,-0.724 3.257,-1.257 4.864,-1.94c3.665,-1.558 17.964,-2.867 25.767,-0.427z"/>
  <defs>
   <circle r="243" id="SVGID_3_" cy="258.835" cx="258.884"/>
  </defs>
  <clipPath id="SVGID_4_">
   <use id="svg_9" xlink:href="#SVGID_3_"/>
  </clipPath>
  <path id="svg_11" fill="#9be6ff" d="m80.876,371.075c5.133,1.606 10.137,3.738 14.516,6.918c8.524,6.19 14.021,15.485 16.989,25.573c0.828,2.814 3.891,0.49 5.728,-0.05c3.389,-0.997 6.932,-1.434 10.457,-1.218c5.433,0.334 10.828,1.664 15.676,4.213c9.128,4.798 15.25,13.599 17.714,23.635c0.503,2.05 0.302,4.648 2.927,4.71c2.725,0.063 5.434,0.651 7.894,1.861c4.659,2.292 10.832,8.675 10.642,14.34c-0.324,9.652 -2.957,19.124 -13.127,22.412c-5.581,1.804 -12.637,0.638 -18.378,0.639c-28.799,0.01 -57.599,0.02 -86.398,0.01c-12.852,-0.004 -25.705,-0.01 -38.557,-0.038c-7.199,-0.016 -13.866,0.778 -20.562,-2.302c-21.941,-10.095 -25.299,-43.116 -5.693,-57.46c5.295,-3.874 11.708,-5.774 18.183,-6.072c4.03,-0.185 5.168,0.026 6.241,-4.139c0.98,-3.805 2.335,-7.518 4.137,-11.002c2.988,-5.774 7.222,-10.801 12.409,-14.647c2.669,-1.979 5.558,-3.642 8.571,-5.015c1.59,-0.724 3.257,-1.257 4.864,-1.94c3.664,-1.56 17.964,-2.869 25.767,-0.428z"/>
  <defs>
   <circle r="243" id="SVGID_5_" cy="258.835" cx="258.884"/>
  </defs>
  <clipPath id="SVGID_6_">
   <use id="svg_13" xlink:href="#SVGID_5_"/>
  </clipPath>
  <path id="svg_15" fill="#9be6ff" d="m224.98,423.452c5.133,1.606 10.137,3.738 14.516,6.918c8.524,6.19 14.021,15.485 16.989,25.573c0.828,2.814 3.891,0.49 5.728,-0.05c3.389,-0.996 6.932,-1.434 10.457,-1.218c5.433,0.334 10.828,1.664 15.676,4.213c9.128,4.798 15.25,13.599 17.714,23.635c0.503,2.05 0.302,4.648 2.927,4.709c2.725,0.063 5.434,0.651 7.894,1.861c4.659,2.292 10.832,8.675 10.642,14.34c-0.324,9.652 -2.957,19.124 -13.127,22.412c-5.581,1.804 -12.637,0.638 -18.378,0.639c-28.799,0.01 -57.599,0.02 -86.398,0.01c-12.852,-0.004 -25.705,-0.01 -38.557,-0.038c-7.199,-0.016 -13.866,0.778 -20.562,-2.302c-21.941,-10.095 -25.299,-43.116 -5.693,-57.46c5.295,-3.874 11.708,-5.774 18.183,-6.072c4.03,-0.185 5.168,0.026 6.241,-4.139c0.98,-3.805 2.335,-7.518 4.137,-11.002c2.988,-5.774 7.222,-10.801 12.409,-14.647c2.669,-1.979 5.558,-3.642 8.571,-5.015c1.59,-0.724 3.257,-1.257 4.864,-1.94c3.665,-1.559 17.964,-2.868 25.767,-0.427z"/>
  <defs>
   <circle r="243" id="SVGID_7_" cy="258.835" cx="258.884"/>
  </defs>
  <clipPath id="SVGID_8_">
   <use id="svg_17" xlink:href="#SVGID_7_"/>
  </clipPath>
  <path opacity="0.3" id="svg_19" fill="#C4F0FF" d="m388.993,296.222c-4.248,1.378 -8.388,3.208 -12.012,5.937c-7.054,5.312 -11.602,13.289 -14.058,21.947c-0.685,2.415 -3.22,0.421 -4.74,-0.043c-2.805,-0.855 -5.736,-1.231 -8.653,-1.045c-4.495,0.286 -8.96,1.428 -12.972,3.615c-7.553,4.117 -12.619,11.67 -14.658,20.283c-0.417,1.759 -0.25,3.989 -2.422,4.042c-2.255,0.054 -4.496,0.559 -6.532,1.597c-3.855,1.967 -8.963,7.444 -8.806,12.307c0.268,8.283 2.447,16.412 10.863,19.234c4.618,1.548 10.457,0.547 15.207,0.549c23.831,0.008 47.663,0.017 71.494,0.009c10.635,-0.004 21.27,-0.008 31.905,-0.032c5.957,-0.014 11.474,0.668 17.015,-1.976c18.156,-8.663 20.934,-37.002 4.711,-49.311c-4.381,-3.325 -9.688,-4.955 -15.046,-5.211c-3.335,-0.159 -4.276,0.022 -5.164,-3.552c-0.811,-3.266 -1.932,-6.452 -3.424,-9.442c-2.472,-4.955 -5.976,-9.269 -10.268,-12.57c-2.209,-1.698 -4.599,-3.126 -7.092,-4.303c-1.316,-0.622 -2.695,-1.078 -4.025,-1.665c-3.034,-1.342 -14.866,-2.465 -21.323,-0.37z"/>
  <defs>
   <circle r="243" id="SVGID_9_" cy="258.835" cx="258.884"/>
  </defs>
  <clipPath id="SVGID_10_">
   <use id="svg_21" xlink:href="#SVGID_9_"/>
  </clipPath>
  <path opacity="0.3" id="svg_23" fill="#C4F0FF" d="m182.345,296.931c-2.738,0.888 -5.406,2.068 -7.742,3.826c-4.546,3.424 -7.478,8.566 -9.061,14.146c-0.442,1.557 -2.075,0.271 -3.055,-0.028c-1.808,-0.551 -3.697,-0.793 -5.577,-0.674c-2.898,0.185 -5.775,0.921 -8.361,2.33c-4.868,2.654 -8.134,7.522 -9.448,13.073c-0.268,1.134 -0.161,2.571 -1.561,2.605c-1.453,0.035 -2.898,0.36 -4.21,1.029c-2.485,1.268 -5.777,4.798 -5.676,7.932c0.173,5.339 1.577,10.578 7.002,12.397c2.977,0.998 6.74,0.353 9.802,0.354c15.36,0.005 30.721,0.011 46.081,0.006c6.855,-0.002 13.71,-0.005 20.565,-0.021c3.84,-0.009 7.396,0.43 10.967,-1.273c11.703,-5.584 13.493,-23.849 3.037,-31.784c-2.824,-2.143 -6.244,-3.194 -9.698,-3.359c-2.149,-0.102 -2.756,0.014 -3.329,-2.289c-0.523,-2.105 -1.245,-4.158 -2.207,-6.086c-1.594,-3.194 -3.852,-5.975 -6.619,-8.102c-1.424,-1.095 -2.964,-2.015 -4.571,-2.774c-0.848,-0.401 -1.737,-0.695 -2.594,-1.073c-1.956,-0.861 -9.583,-1.585 -13.745,-0.235z"/>
  <rect id="svg_25" opacity="0.1" fill="#C4F0FF" y="3.177" x="99.012" width="44.243" transform="matrix(0.7071,0.7071,-0.7071,0.7071,189.8578,-21.7085) " height="430.296"/>
  <rect id="svg_27" opacity="0.1" fill="#C4F0FF" y="3.177" x="108.238" width="25.791" transform="matrix(0.7071,0.7071,-0.7071,0.7071,189.8578,-21.7085) " height="430.296"/>
  <rect id="svg_29" opacity="0.1" fill="#C4F0FF" y="3.177" x="113.868" width="14.531" transform="matrix(0.7071,0.7071,-0.7071,0.7071,189.8578,-21.7085) " height="430.296"/>
  <rect id="svg_31" opacity="0.1" fill="#C4F0FF" y="176.437" x="282.015" width="44.243" transform="matrix(0.7071,0.7071,-0.7071,0.7071,365.9717,-100.3644) " height="430.296"/>
  <rect id="svg_33" opacity="0.1" fill="#C4F0FF" y="176.437" x="291.241" width="25.791" transform="matrix(0.7071,0.7071,-0.7071,0.7071,365.9717,-100.3644) " height="430.296"/>
  <rect id="svg_35" opacity="0.1" fill="#C4F0FF" y="176.437" x="296.871" width="14.531" transform="matrix(0.7071,0.7071,-0.7071,0.7071,365.9717,-100.3644) " height="430.296"/>
  <path id="svg_36" fill="#808080" d="m464.355,175.161l-15.121,15.121c-2.308,2.308 -6.042,2.308 -8.351,0l-12.186,-12.186c-1.616,-1.616 -2.1,-3.937 -1.449,-5.983c0.28,-0.865 0.758,-1.676 1.449,-2.368l15.121,-15.121c2.308,-2.308 6.048,-2.303 8.351,0l12.186,12.186c2.308,2.308 2.308,6.042 0,8.351z"/>
  <path id="svg_37" fill="#808080" d="m492.229,226.512l-15.121,15.121c-2.302,2.302 -6.042,2.308 -8.351,0l-12.186,-12.186c-2.308,-2.308 -2.302,-6.048 0,-8.351l15.121,-15.121c2.308,-2.308 6.043,-2.308 8.351,0l12.186,12.186c2.308,2.309 2.308,6.043 0,8.351z"/>
  <path id="svg_38" opacity="0.8" fill="#808080" d="m454.602,157.057l-21.205,21.205l-6.15,-6.15c0.28,-0.865 0.758,-1.676 1.449,-2.368l15.121,-15.121c2.308,-2.308 6.048,-2.303 8.351,0l2.434,2.434z"/>
  <path id="svg_39" opacity="0.8" fill="#808080" d="m482.995,208.928l-23.472,23.472l-2.953,-2.953c-2.308,-2.308 -2.302,-6.048 0,-8.351l15.121,-15.121c2.308,-2.308 6.043,-2.308 8.351,0l2.953,2.953z"/>
  <path id="svg_41" fill="#CFCFCF" d="m299.7,324.391c-3.88,2.02 -8.84,-0.11 -11.02,-4.72l-24.43,-51.69l-0.77,-1.63c-2.18,-4.61 -0.43,-10.62 3.88,-13.34l22.97,-14.53c4.32,-2.73 8.25,-0.81 8.75,4.27l0.45,4.54l6.31,64.19c0.5,5.08 -2.27,10.89 -6.14,12.91z"/>
  <path id="svg_42" opacity="0.2" fill="#ffffff" d="m299.7,324.391c-3.88,2.02 -8.84,-0.11 -11.02,-4.72l-24.43,-51.69l-0.77,-1.63c-2.18,-4.61 -0.43,-10.62 3.88,-13.34l22.97,-14.53c4.32,-2.73 8.25,-0.81 8.75,4.27l0.45,4.54l6.31,64.19c0.5,5.08 -2.27,10.89 -6.14,12.91z"/>
  <path id="svg_43" fill="#E44F50" d="m299.699,324.391c-3.877,2.016 -8.84,-0.107 -11.017,-4.718l-25.202,-53.32c-2.177,-4.611 -0.429,-10.618 3.883,-13.344l1.39,-0.877c-1.396,2.827 -1.569,6.257 -0.203,9.15l25.208,53.314c2.064,4.366 6.615,6.508 10.379,5.01c-1.097,2.113 -2.648,3.854 -4.438,4.785z"/>
  <path id="svg_45" fill="#CFCFCF" d="m502.87,292.161l-9.42,9.41c-4.71,4.71 -12.7,4.12 -17.75,-1.32l-100.94,-108.64l-11.4,-12.27c-5.06,-5.44 -5.33,-13.74 -0.62,-18.45l41.42,-41.42c4.71,-4.71 11.55,-3.34 15.2,3.06l11.03,19.29l74.4,130.15c3.65,6.39 2.79,15.48 -1.92,20.19z"/>
  <path id="svg_46" opacity="0.2" fill="#ffffff" d="m502.87,292.161l-9.42,9.41c-4.71,4.71 -12.7,4.12 -17.75,-1.32l-100.94,-108.64l-11.4,-12.27c-5.06,-5.44 -5.33,-13.74 -0.62,-18.45l41.42,-41.42c4.71,-4.71 11.55,-3.34 15.2,3.06l11.03,19.29l74.4,130.15c3.65,6.39 2.79,15.48 -1.92,20.19z"/>
  <path id="svg_47" fill="#E44F50" d="m500.216,294.805l-6.764,6.764c-4.712,4.712 -12.699,4.122 -17.746,-1.318l-112.349,-120.915c-5.052,-5.434 -5.333,-13.731 -0.62,-18.443l6.764,-6.764c-4.712,4.712 -4.432,13.009 0.62,18.443l112.349,120.915c5.046,5.439 13.033,6.03 17.746,1.318z"/>
  <path id="svg_48" fill="#808080" d="m343.189,53.995l-15.121,15.121c-2.308,2.308 -2.308,6.042 0,8.351l12.186,12.186c1.616,1.616 3.937,2.1 5.983,1.449c0.865,-0.28 1.676,-0.758 2.368,-1.449l15.121,-15.121c2.308,-2.308 2.303,-6.048 0,-8.351l-12.186,-12.186c-2.309,-2.308 -6.043,-2.308 -8.351,0z"/>
  <path id="svg_49" fill="#808080" d="m291.837,26.121l-15.121,15.121c-2.302,2.302 -2.309,6.042 0,8.351l12.186,12.186c2.308,2.308 6.048,2.302 8.351,0l15.121,-15.121c2.308,-2.308 2.308,-6.043 0,-8.351l-12.186,-12.186c-2.308,-2.308 -6.042,-2.308 -8.351,0z"/>
  <path id="svg_50" opacity="0.8" fill="#808080" d="m361.292,63.748l-21.205,21.205l6.15,6.15c0.865,-0.28 1.676,-0.758 2.368,-1.449l15.121,-15.121c2.308,-2.308 2.303,-6.048 0,-8.351l-2.434,-2.434z"/>
  <path id="svg_51" opacity="0.8" fill="#808080" d="m309.422,35.355l-23.472,23.472l2.953,2.953c2.308,2.308 6.048,2.302 8.351,0l15.121,-15.121c2.308,-2.308 2.308,-6.043 0,-8.351l-2.953,-2.953z"/>
  <path id="svg_53" fill="#CFCFCF" d="m279.87,228.021l-14.53,22.97c-2.72,4.31 -8.73,6.06 -13.35,3.88l-5.98,-2.83l-47.33,-22.38c-4.61,-2.18 -6.74,-7.13 -4.72,-11.01c2.02,-3.87 7.83,-6.64 12.9,-6.14l58.19,5.72l10.55,1.04c5.07,0.49 7,4.43 4.27,8.75z"/>
  <path id="svg_54" opacity="0.4" fill="#CFCFCF" d="m279.87,228.021l-14.53,22.97c-2.72,4.31 -8.73,6.06 -13.35,3.88l-5.98,-2.83l-47.33,-22.38c-4.61,-2.18 -6.74,-7.13 -4.72,-11.01c2.02,-3.87 7.83,-6.64 12.9,-6.14l58.19,5.72l10.55,1.04c5.07,0.49 7,4.43 4.27,8.75z"/>
  <path id="svg_55" fill="#E44F50" d="m193.959,218.65c-2.016,3.877 0.107,8.84 4.718,11.017l53.32,25.202c4.611,2.177 10.618,0.429 13.343,-3.883l0.877,-1.39c-2.827,1.396 -6.257,1.569 -9.15,0.203l-53.314,-25.208c-4.366,-2.064 -6.508,-6.615 -5.01,-10.379c-2.112,1.098 -3.853,2.649 -4.784,4.438z"/>
  <path id="svg_57" fill="#CFCFCF" d="m398.88,114.191l-41.42,41.42c-4.71,4.71 -13.01,4.43 -18.45,-0.62l-16.77,-15.58l-104.14,-96.76c-5.44,-5.06 -6.03,-13.04 -1.32,-17.76l9.41,-9.41c4.71,-4.71 13.8,-5.58 20.19,-1.92l124.49,71.16l24.95,14.26c6.4,3.66 7.77,10.5 3.06,15.21z"/>
  <path id="svg_58" opacity="0.4" fill="#fcfcfc" d="m398.88,114.191l-41.42,41.42c-4.71,4.71 -13.01,4.43 -18.45,-0.62l-16.77,-15.58l-104.14,-96.76c-5.44,-5.06 -6.03,-13.04 -1.32,-17.76l9.41,-9.41c4.71,-4.71 13.8,-5.58 20.19,-1.92l124.49,71.16l24.95,14.26c6.4,3.66 7.77,10.5 3.06,15.21z"/>
  <path id="svg_59" fill="#E44F50" d="m223.545,18.134l-6.764,6.764c-4.712,4.712 -4.122,12.699 1.318,17.746l120.915,112.349c5.434,5.052 13.731,5.333 18.443,0.62l6.764,-6.764c-4.712,4.712 -13.009,4.432 -18.443,-0.62l-120.915,-112.349c-5.44,-5.047 -6.03,-13.034 -1.318,-17.746z"/>
  <path id="svg_60" opacity="0.3" fill="#CFCFCF" d="m251.99,254.871l-5.98,-2.83c4.2,-9.23 10.82,-20.85 19.04,-33.81l10.55,1.04c5.07,0.49 7,4.43 4.27,8.75l-14.53,22.97c-2.72,4.31 -8.73,6.06 -13.35,3.88z"/>
  <path id="svg_61" opacity="0.3" fill="#CFCFCF" d="m299.08,242.751l0.45,4.54c-13.45,8.83 -25.59,16.02 -35.28,20.69l-0.77,-1.63c-2.18,-4.61 -0.43,-10.62 3.88,-13.34l22.97,-14.53c4.32,-2.73 8.25,-0.81 8.75,4.27z"/>
  <path id="svg_62" opacity="0.3" fill="#CFCFCF" d="m398.88,114.191l-41.42,41.42c-4.71,4.71 -13.01,4.43 -18.45,-0.62l-16.77,-15.58c15.94,-19.75 32.14,-38.23 46.43,-52.52c0.74,-0.74 1.47,-1.46 2.2,-2.17l24.95,14.26c6.4,3.66 7.77,10.5 3.06,15.21z"/>
  <path id="svg_63" opacity="0.3" fill="#CFCFCF" d="m430.39,141.821c-0.86,0.89 -1.75,1.78 -2.65,2.68c-14.42,14.41 -33.06,30.87 -52.98,47.11l-11.4,-12.27c-5.06,-5.44 -5.33,-13.74 -0.62,-18.45l41.42,-41.42c4.71,-4.71 11.55,-3.34 15.2,3.06l11.03,19.29z"/>
  <path id="svg_64" fill="#efefef" d="m424.707,141.464c-55.315,55.315 -170.51,143.201 -181.199,132.513c-10.689,-10.69 75.638,-125.977 130.953,-181.292s84.037,-55.078 94.726,-44.389s10.835,37.852 -44.48,93.168z"/>
  <path id="svg_65" opacity="0.5" fill="#CFCFCF" d="m386.298,104.524c-45.471,45.471 -111.902,131.467 -128.168,166.57c-7.546,3.573 -12.723,4.778 -14.62,2.881c-10.689,-10.689 75.635,-125.979 130.948,-181.291c55.319,-55.319 84.04,-55.074 94.729,-44.385c1.915,1.915 3.495,4.366 4.474,7.409c-14.257,-4.629 -41.773,3.226 -87.363,48.816z"/>
 </g>
</svg>