<?xml version="1.0" encoding="utf-8"?>
<!-- Generator: Adobe Illustrator 23.0.1, SVG Export Plug-In . SVG Version: 6.00 Build 0)  -->
<svg version="1.1" id="Layer_1" xmlns="http://www.w3.org/2000/svg" xmlns:xlink="http://www.w3.org/1999/xlink" x="0px" y="0px"
	 viewBox="0 0 128 128" style="enable-background:new 0 0 128 128;" xml:space="preserve">
<style type="text/css">
	.st0{fill:none;}
	.st1{fill:#FFFFFF;}
	.st2{fill:#E2E2E2;}
	.st3{fill:#28B8CE;}
	.st4{fill:none;stroke:#3D3D3D;stroke-width:2;stroke-linecap:round;stroke-linejoin:round;stroke-miterlimit:10;}
	
		.st5{fill:none;stroke:#3D3D3D;stroke-width:2;stroke-linecap:square;stroke-linejoin:round;stroke-miterlimit:10;stroke-dasharray:5;}
	.st6{fill:#53AF80;}
	.st7{fill:none;stroke:#3D3D3D;stroke-width:2;stroke-miterlimit:10;}
</style>
<g>
	<title>background</title>
	<rect id="canvas_background" x="-1" y="-1" class="st0" width="582" height="402"/>
</g>
<g>
	<title>Layer 1</title>
	<polygon id="svg_1" class="st1" points="43.9,118 124,118 124,16 43.9,16 24.3,7.6 5,16 5,118.1 24.3,109.6 	"/>
	<polygon id="svg_2" class="st2" points="24,7.6 24,109.6 44,118.1 44,16 	"/>
	<path id="svg_3" class="st3" d="M5,40c0,1,1.9,0,1.9,0s1.4-0.9,2.6-2.3s1.2-0.5,2.1-1.4c0.9-0.9,0.9-1.4,2.1-2.3
		c1.2-1,1.6-1.1,3.5-1.9c1.9-0.7,1.2-1.4,2.6-2.4s2.6,1.7,4.4,2.2c1.9,0.5,1.4,1.2,2.7,2.1s3.3,0.7,4.8,1c1.4,0.2,4.2,2.6,5.9,2.8
		s4.7-1.9,6.3-3s4.2-5.4,4.4-6.6c0,0,3.3-5.6,3.7-6.5l3-5.6h-8.4l-0.9,5.6c-0.5,0.9-1.9,5.4-1.9,5.4s-2.1,2.1-3,2.6
		s-2.6,1.6-4.7,2.1c-2.1,0.5-3-0.7-4.2-1.2s-3.5-2.3-5-3s-2.7-2.6-2.7-3.5s-2.6-0.9-3.5-0.8s-2.6,1.3-3.5,2s-3.7,1.4-4.4,2.1
		C12,27.9,9.3,31,8.6,32.8S5,34,5,32.8S5,40,5,40z"/>
	<path id="svg_4" class="st3" d="M6.9,72.8c2.3-0.8,7,5.5,8.9,6.9s8.4,8.7,8.4,8.7s3.7,0.2,5.6,3.3c1.9,3,8,0.7,9.4,1.4
		c1.4,0.7,4.7,4.4,4.7,4.4s7-7,10.3-9.1s4.7-3,7-3.7s9.8-1.2,11.7,0c1.9,1.2,9.4,2.1,10.8,0.4c1.4-1.6,9.8,1.6,13.3,3
		s5.4,3.3,6.8,4.9c1.4,1.7,17.1,10,17.1,10c1.1,0.6,3.1,3.7,3.1,3.7s0-16.2,0-16.9s-1.9-1.2-3.1-1.9c0,0-5.5-5.6-8.3-7.5
		s-5.1-5.2-8.4-7.8c-3.3-2.7-8.9-0.1-14.5,0s-9.4-1.5-12.6-7.3c-3.3-5.8-4.2-6.4-4.2-10.6s2.8-6.6,5.2-10.6s1.4-4.8,1.9-9.8
		S85.5,23,85.5,23c1.2-1.6,7.7-7,7.7-7H67.1l-0.3,5.6c0,2.8-1.9,14.7-3.3,17.4c-1.4,2.7-3.3,1.6-2.8,6.9s1.8,6.4,3,11.4
		c1.2,5,2.1,8.8,3.1,10.7s-0.5,6.2,0,7.1s-2.1,3.2-2.9,4.6c-0.8,1.4-10,2.3-9.7,3.5c0.2,1.2-4,4.7-4.9,4.9c-0.9,0.2-5.4,3-5.4,3
		s-2.1-1.2-3.3-1.6S39,89,37.8,89.7s-1,1-2.8,0.3c-1.9-0.7-1.9,0-3.3-1.9c-1.4-1.9-2.6-1.5-3.7-2.2s-1.4-1.6-2.6-1.6
		s-4.7-4.7-5.6-5.6s-6.1-6.6-7.3-7s-2.3-0.7-3.3-1.2s-4.4-1.2-4.4-1.2S4.5,73.6,6.9,72.8L6.9,72.8z"/>
	<polygon id="svg_5" class="st4" points="43.9,118 124,118 124,16 43.9,16 24.3,7.6 5,16 5,118.1 24.3,109.6 	"/>
	<line id="svg_6" class="st5" x1="24" y1="14" x2="24" y2="107"/>
	<line id="svg_7" class="st5" x1="44" y1="22" x2="44" y2="114"/>
	<path id="svg_8" class="st4" d="M89.1,19.5c0,0-8.7,7.5-9.2,14.9c-0.3,5,0.5,5.7-1.9,9.8s-5.2,6.4-5.2,10.6s0.9,4.8,4.2,10.6
		c3.3,5.8,7,7.5,12.6,7.3c5.6-0.1,11.2-2.7,14.5,0s5.6,5.9,8.4,7.8s8.4,7.5,8.4,7.5"/>
	<path id="svg_9" class="st4" d="M121.1,103.1c0,0-15.9-8.4-17.3-10c-1.4-1.7-3.3-3.5-6.8-4.9s-11.9-4.7-13.3-3
		c-1.4,1.6-8.9,0.7-10.8-0.4c-1.9-1.2-9.4-0.7-11.7,0s-3.7,1.6-7,3.7s-10.3,9.1-10.3,9.1s-3.3-3.7-4.7-4.4c-1.4-0.7-7.5,1.6-9.4-1.4
		s-5.6-3.3-5.6-3.3s-6.6-7.3-8.4-8.7s-6.6-7.8-8.9-7"/>
	<path id="svg_10" class="st4" d="M66.9,19.5c0,2.8-2,16.7-3.4,19.5c-1.4,2.7-3.3,1.6-2.8,6.9s1.8,6.4,3,11.4s2.1,8.8,3.1,10.7
		s-0.5,6.2,0,7.1s-2.1,3.2-2.9,4.6c-0.8,1.4-10,2.3-9.7,3.5c0.2,1.2-4,4.7-4.9,4.9c-0.9,0.2-5.4,3-5.4,3s-2.1-1.2-3.3-1.6
		S39,89,37.8,89.7s-0.9,0.9-2.8,0.2c-1.9-0.7-1.9,0-3.3-1.9c-1.4-1.9-2.6-1.5-3.7-2.2s-1.4-1.6-2.6-1.6s-4.7-4.7-5.6-5.6
		s-6.1-6.6-7.3-7s-2.3-0.7-3.3-1.2"/>
	<path id="svg_11" class="st4" d="M8.3,32.8C9,31,12,27.9,12.7,27.2c0.7-0.7,3.5-1.4,4.4-2.1s2.6-1.9,3.5-2s3.5-0.1,3.5,0.8
		s1.3,2.8,2.7,3.5c1.5,0.7,3.8,2.6,5,3c1.2,0.5,2.1,1.6,4.2,1.2c2.1-0.5,3.7-1.6,4.7-2.1s3-2.6,3-2.6s1.7-6.5,2.2-7.5"/>
	<path id="svg_12" class="st4" d="M53.2,19.5c-0.5,0.9-4.9,8.6-4.9,8.6c-0.2,1.2-2.8,5.4-4.4,6.6s-4.7,3.3-6.3,3
		c-1.6-0.2-4.4-2.6-5.9-2.8c-1.4-0.2-3.4,0-4.8-1c-1.3-0.9-0.9-1.6-2.7-2.1c-1.9-0.5-3-3.3-4.4-2.2c-1.4,1-0.7,1.7-2.6,2.4
		c-1.9,0.7-2.4,1-3.5,2c-1.2,1-1.2,1.4-2.1,2.4c-0.9,0.9-0.9,0-2.1,1.4s-2.6,2.3-2.6,2.3"/>
	<path id="svg_13" class="st6" d="M114.1,60c0,1.5-1.3,2.7-2.8,2.7c-1.6,0-2.8-1.2-2.8-2.7s1.3-6.5,2.8-6.5
		C112.9,53.5,114.1,58.5,114.1,60z"/>
	<path id="svg_14" class="st4" d="M114.1,60c0,1.5-1.3,2.7-2.8,2.7c-1.6,0-2.8-1.2-2.8-2.7s1.3-6.5,2.8-6.5
		C112.9,53.5,114.1,58.5,114.1,60z"/>
	<line id="svg_15" class="st4" x1="111" y1="60" x2="111" y2="65"/>
	<path id="svg_16" class="st6" d="M104.7,59.1c0,1.5-1.3,2.7-2.8,2.7s-2.8-1.2-2.8-2.7s1.3-6.5,2.8-6.5S104.7,57.6,104.7,59.1z"/>
	<path id="svg_17" class="st4" d="M104.7,59.1c0,1.5-1.3,2.7-2.8,2.7s-2.8-1.2-2.8-2.7s1.3-6.5,2.8-6.5S104.7,57.6,104.7,59.1z"/>
	<line id="svg_18" class="st4" x1="102" y1="59" x2="102" y2="64"/>
	<path id="svg_19" class="st6" d="M110.4,46.9c0,1.5-1.3,2.7-2.8,2.7c-1.6,0-2.8-1.2-2.8-2.7s1.3-6.5,2.8-6.5S110.4,45.4,110.4,46.9
		z"/>
	<path id="svg_20" class="st4" d="M110.4,46.9c0,1.5-1.3,2.7-2.8,2.7c-1.6,0-2.8-1.2-2.8-2.7s1.3-6.5,2.8-6.5S110.4,45.4,110.4,46.9
		z"/>
	<line id="svg_21" class="st4" x1="108" y1="47" x2="108" y2="52"/>
	<path id="svg_22" class="st6" d="M95.4,107.8c0,1.5-1.3,2.7-2.8,2.7c-1.6,0-2.8-1.2-2.8-2.7s1.3-6.5,2.8-6.5S95.4,106.3,95.4,107.8
		z"/>
	<path id="svg_23" class="st4" d="M95.4,107.8c0,1.5-1.3,2.7-2.8,2.7c-1.6,0-2.8-1.2-2.8-2.7s1.3-6.5,2.8-6.5S95.4,106.3,95.4,107.8
		z"/>
	<line id="svg_24" class="st4" x1="93" y1="108" x2="93" y2="112"/>
	<path id="svg_25" class="st6" d="M77.6,102.1c0,1.5-1.3,2.7-2.8,2.7s-2.8-1.2-2.8-2.7s1.3-6.5,2.8-6.5S77.6,100.6,77.6,102.1z"/>
	<path id="svg_26" class="st4" d="M77.6,102.1c0,1.5-1.3,2.7-2.8,2.7s-2.8-1.2-2.8-2.7s1.3-6.5,2.8-6.5S77.6,100.6,77.6,102.1z"/>
	<line id="svg_27" class="st4" x1="75" y1="102" x2="75" y2="107"/>
	<path id="svg_28" class="st6" d="M60.7,70.3c0,1.5-1.3,2.7-2.8,2.7s-2.8-1.2-2.8-2.7s1.3-6.5,2.8-6.5S60.7,68.8,60.7,70.3z"/>
	<path id="svg_29" class="st4" d="M60.7,70.3c0,1.5-1.3,2.7-2.8,2.7s-2.8-1.2-2.8-2.7s1.3-6.5,2.8-6.5S60.7,68.8,60.7,70.3z"/>
	<line id="svg_30" class="st4" x1="58" y1="70" x2="58" y2="75"/>
	<path id="svg_31" class="st6" d="M60.7,31c0,1.5-1.3,2.7-2.8,2.7s-2.8-1.2-2.8-2.7s1.3-6.5,2.8-6.5S60.7,29.5,60.7,31z"/>
	<path id="svg_32" class="st4" d="M60.7,31c0,1.5-1.3,2.7-2.8,2.7s-2.8-1.2-2.8-2.7s1.3-6.5,2.8-6.5S60.7,29.5,60.7,31z"/>
	<line id="svg_33" class="st4" x1="58" y1="31" x2="58" y2="36"/>
	<path id="svg_34" class="st6" d="M34.7,79.7c0,1.5-0.9,2.7-2.1,2.7c-1.2,0-2.1-1.2-2.1-2.7s0.9-6.5,2.1-6.5S34.7,78.2,34.7,79.7z"
		/>
	<path id="svg_35" class="st4" d="M34.7,79.7c0,1.5-0.9,2.7-2.1,2.7c-1.2,0-2.1-1.2-2.1-2.7s0.9-6.5,2.1-6.5S34.7,78.2,34.7,79.7z"
		/>
	<line id="svg_36" class="st4" x1="33" y1="80" x2="33" y2="84"/>
	<path id="svg_37" class="st6" d="M14.1,88.1c0,1.5-0.9,2.7-2.1,2.7s-2.1-1.2-2.1-2.7s0.9-6.5,2.1-6.5S14.1,86.6,14.1,88.1z"/>
	<path id="svg_38" class="st4" d="M14.1,88.1c0,1.5-0.9,2.7-2.1,2.7s-2.1-1.2-2.1-2.7s0.9-6.5,2.1-6.5S14.1,86.6,14.1,88.1z"/>
	<line id="svg_39" class="st4" x1="12" y1="88" x2="12" y2="93"/>
	<line id="svg_40" class="st7" x1="97" y1="22" x2="120" y2="22"/>
	<line id="svg_41" class="st7" x1="98" y1="22" x2="98" y2="24"/>
	<line id="svg_42" class="st7" x1="101" y1="22" x2="101" y2="24"/>
	<line id="svg_43" class="st7" x1="104" y1="22" x2="104" y2="24"/>
	<line id="svg_44" class="st7" x1="107" y1="22" x2="107" y2="24"/>
	<line id="svg_45" class="st7" x1="109" y1="22" x2="109" y2="24"/>
	<line id="svg_46" class="st7" x1="112" y1="22" x2="112" y2="24"/>
	<line id="svg_47" class="st7" x1="115" y1="22" x2="115" y2="24"/>
	<line id="svg_48" class="st7" x1="118" y1="22" x2="118" y2="24"/>
	<circle id="svg_49" class="st7" cx="116" cy="30" r="3.1"/>
	<line id="svg_50" class="st7" x1="116" y1="27" x2="116" y2="33"/>
	<line id="svg_51" class="st7" x1="113" y1="30" x2="119" y2="30"/>
</g>
</svg>
